<svg width="37" height="37" viewBox="0 0 37 37" fill="none" xmlns="http://www.w3.org/2000/svg">
<path d="M18.485 36.9701C28.694 36.9701 36.9701 28.694 36.9701 18.485C36.9701 8.27603 28.694 0 18.485 0C8.27603 0 0 8.27603 0 18.485C0 28.694 8.27603 36.9701 18.485 36.9701Z" fill="black"/>
<path fill-rule="evenodd" clip-rule="evenodd" d="M25.0972 23.7368C25.6727 22.859 25.8872 22.4103 26.3261 21.4252C23.088 20.1963 22.5711 15.583 25.7702 13.8176C24.7949 12.5887 23.4196 11.8767 22.1224 11.8767C21.1861 11.8767 20.5424 12.1206 19.967 12.3449C19.4793 12.5302 19.0404 12.696 18.4942 12.696C17.909 12.696 17.3921 12.5107 16.8459 12.3156C16.2509 12.101 15.6267 11.8767 14.8464 11.8767C13.3932 11.8767 11.8424 12.7643 10.8573 14.2858C9.47232 16.4315 9.71615 20.4499 11.9497 23.8831C12.7494 25.112 13.8223 26.4872 15.217 26.5067C15.8022 26.5165 16.1826 26.3409 16.602 26.1556C17.08 25.941 17.5969 25.707 18.5039 25.707C19.411 25.6972 19.9182 25.941 20.3961 26.1556C20.8057 26.3409 21.1764 26.5165 21.7518 26.5067C23.166 26.4872 24.2974 24.9657 25.0972 23.7368Z" fill="white"/>
<path fill-rule="evenodd" clip-rule="evenodd" d="M21.918 7C22.074 8.07287 21.6351 9.13599 21.0597 9.87725C20.4452 10.677 19.3723 11.3012 18.3385 11.2622C18.1532 10.2284 18.6311 9.16523 19.2163 8.45324C19.8698 7.67297 20.9719 7.06827 21.918 7Z" fill="white"/>
</svg>
