<svg width="29" height="28" viewBox="0 0 29 28" fill="none" xmlns="http://www.w3.org/2000/svg">
<path d="M28.3964 14.0758C28.3964 6.50016 22.2537 0.362671 14.6832 0.362671C7.10758 0.362671 0.970093 6.50016 0.970093 14.0758C0.970093 20.9187 5.9831 26.5925 12.5406 27.6201V18.0406H9.05828V14.0767H12.5406V11.0538C12.5406 7.61778 14.5847 5.72022 17.7181 5.72022C19.2189 5.72022 20.7899 5.98763 20.7899 5.98763V9.36192H19.0577C17.3573 9.36192 16.8259 10.4204 16.8259 11.5046V14.0758H20.6287L20.0177 18.0398H16.8259V27.6193C23.3782 26.5916 28.3964 20.9178 28.3964 14.075V14.0758Z" fill="#1877F2"/>
</svg>
